<?xml version="1.0" encoding="utf-8"?>
<!-- Generator: Adobe Illustrator 16.0.4, SVG Export Plug-In . SVG Version: 6.00 Build 0)  -->
<!DOCTYPE svg PUBLIC "-//W3C//DTD SVG 1.1//EN" "http://www.w3.org/Graphics/SVG/1.1/DTD/svg11.dtd">
<svg version="1.1" xmlns="http://www.w3.org/2000/svg" xmlns:xlink="http://www.w3.org/1999/xlink" x="0px" y="0px" width="1292px"
	 height="983px" viewBox="0 0 1292 983" enable-background="new 0 0 1292 983" xml:space="preserve">
<g id="Livello_3" display="none">
	
		<image display="inline" overflow="visible" width="1685" height="1139" xlink:href="E773669A12276C64.jpg"  transform="matrix(1 0 0 1 -114.6191 -148.9995)">
	</image>
</g>
<g id="Livello_4">
	<g id="XMLID_2_">
		<g>
			<g>
				<linearGradient id="SVGID_1_" gradientUnits="userSpaceOnUse" x1="669.9805" y1="496.3301" x2="943.4082" y2="496.3301">
					<stop  offset="0" style="stop-color:#9FFF54"/>
					<stop  offset="0.1103" style="stop-color:#96FD4B"/>
					<stop  offset="0.2937" style="stop-color:#7DF631"/>
					<stop  offset="0.5264" style="stop-color:#54EB08"/>
					<stop  offset="0.5674" style="stop-color:#4CE900"/>
					<stop  offset="0.8652" style="stop-color:#029400"/>
					<stop  offset="0.9944" style="stop-color:#007F2F"/>
				</linearGradient>
				<path fill="url(#SVGID_1_)" d="M681.46,328.35C687.58,350.03,970,610,941.37,611.03c-28.63,1.04-95.37,53.64-95.37,53.64
					L669.98,327.99L681.46,328.35z"/>
			</g>
			<g>
				<path fill="#020202" d="M845.836,665.436L669.141,327.464l12.701,0.398l0.1,0.353c2.538,8.993,54.999,61.27,110.54,116.616
					c76.384,76.117,155.369,154.825,151.251,165.322c-0.234,0.599-0.832,1.323-2.345,1.378
					c-28.14,1.021-94.412,53.008-95.078,53.532L845.836,665.436z M670.82,328.517l175.344,335.389
					c6.506-5.089,67.669-52.375,95.188-53.375c1.175-0.042,1.382-0.569,1.45-0.743c3.878-9.886-82.012-95.476-151.026-164.248
					c-57.35-57.149-106.974-106.599-110.682-116.7L670.82,328.517z"/>
			</g>
		</g>
		<g>
			<g>
				<path fill="#F0D30E" d="M681.46,328.35C687.58,350.03,970,610,941.37,611.03c-28.63,1.04-95.37,53.64-95.37,53.64L669.98,327.99
					L681.46,328.35z"/>
			</g>
			<g>
				<path fill="#F0D30E" d="M845.836,665.436L669.141,327.464l12.701,0.398l0.1,0.353c2.538,8.993,54.999,61.27,110.54,116.616
					c76.384,76.117,155.369,154.825,151.251,165.322c-0.234,0.599-0.832,1.323-2.345,1.378
					c-28.14,1.021-94.412,53.008-95.078,53.532L845.836,665.436z M670.82,328.517l175.344,335.389
					c6.506-5.089,67.669-52.375,95.188-53.375c1.175-0.042,1.382-0.569,1.45-0.743c3.878-9.886-82.012-95.476-151.026-164.248
					c-57.35-57.149-106.974-106.599-110.682-116.7L670.82,328.517z"/>
			</g>
		</g>
		<g>
			<g>
				<path fill="none" stroke="#333333" stroke-width="3" d="M681.46,328.35C687.58,350.03,970,610,941.37,611.03
					c-28.63,1.04-95.37,53.64-95.37,53.64L669.98,327.99L681.46,328.35z"/>
			</g>
			<g>
				<path fill="none" stroke="#333333" stroke-width="3" d="M845.836,665.436L669.141,327.464l12.701,0.398l0.1,0.353
					c2.538,8.993,54.999,61.27,110.54,116.616c76.384,76.117,155.369,154.825,151.251,165.322c-0.234,0.599-0.832,1.323-2.345,1.378
					c-28.14,1.021-94.412,53.008-95.078,53.532L845.836,665.436z M670.82,328.517l175.344,335.389
					c6.506-5.089,67.669-52.375,95.188-53.375c1.175-0.042,1.382-0.569,1.45-0.743c3.878-9.886-82.012-95.476-151.026-164.248
					c-57.35-57.149-106.974-106.599-110.682-116.7L670.82,328.517z"/>
			</g>
		</g>
	</g>
	<g id="strumento">
		<g id="XMLID_1_">
			<g>
				<path fill="#333333" d="M945.51,590.49c-0.34,1.439-0.649,3.09-0.84,4.84c-0.13,1.15-3.49-0.41-8.86-3.76
					C938.96,591.37,942.2,591.01,945.51,590.49z"/>
				<path fill="#333333" d="M853.08,522.33c0.02,0.11,0.04,0.21,0.07,0.32C853.12,522.54,853.1,522.43,853.08,522.33z"/>
			</g>
			<path fill="#333333" d="M1248,252c-4-12.67-37.33-32.67-74.67-24c-37.33,8.67-64,68.67-70,81.33c-6,12.67-14.66,82-16.66,95.34
				c-2,13.33,1.15,20.2-22,79.33c-25.133,64.193-72.334,96.252-112.049,105.124l-18.527-14.79l0.194-0.237
				c28.687-35.123,122.467-149.98,124.792-153.311l-0.82-0.572c-2.305,3.301-96.065,118.134-124.747,153.25l-0.2,0.245
				l-15.649-12.688l0.199-0.252c27.415-34.763,117.178-148.738,121.242-155.852l-0.869-0.496
				c-4.029,7.054-93.755,120.979-121.158,155.729l-0.191,0.242l-14.816-12.013l124.322-156.739l-0.783-0.621l-124.12,156.489
				l-0.193,0.243l-15.789-12.798l0.2-0.261c18.723-24.434,112.622-146.738,122.612-154.978l-0.637-0.771
				c-9.82,8.1-96.451,120.795-122.77,155.142l-0.183,0.238l-10.432-8.458c0.067-0.089,0.132-0.174,0.2-0.264
				c23.722-31.188,102.477-134.61,119.89-155.957l-0.775-0.632c-17.423,21.359-96.186,124.791-119.911,155.984
				c-0.062,0.081-0.118,0.156-0.179,0.235l-22.407-19.238c0.674-27.958,29.04-67.65,41.555-82.665c13.33-16,73.33-60,82.66-66.14
				c9.34-6.15,24.67-8.52-8.66-16.48c-33.34-7.95-58,33.96-58,33.96c-4.04,5.97-35.34,44.66-59.34,91.33s-6.69,86.78-4.69,92.78
				S863.3,584.7,880,598c28.85,22.98,86.67,14.64,136.67-7.89c61.87-27.87,87.33-115.44,90-142.11c1.61-16.14-0.25-59.4,8.66-118
				c4.26-27.95,8.67-46,30-69.33c21.34-23.34,55.34-8,69.34-1.34c14,6.67,16,8,16,8S1252,264.67,1248,252z M906.67,588
				c-33.644-12.342-47.478-38.356-53.01-62.971c14.056,15.986,59.38,52.75,80.371,66.612
				C923.712,592.085,914.357,590.818,906.67,588z"/>
		</g>
	</g>
	<path fill="#333333" d="M623.708,578.839c-0.134,0-0.265-0.001-0.394-0.003c-1.429-0.02-2.895-0.021-4.36-0.024
		c-10.518-0.016-20.452-0.031-20.452-6.145c0-5.393,62.874-220.582,70.042-245.102l2.879,0.842
		c-24,82.085-69.501,238.782-69.922,244.301c0.001,3.076,10.09,3.093,17.458,3.104c1.478,0.003,2.956,0.005,4.397,0.024
		c0.125,0.002,0.259,0.003,0.391,0.003c35.737,0.006,291.585-62.102,347.108-80.934l0.963,2.842
		C916.187,516.615,659.641,578.839,623.708,578.839z"/>
	<path fill="#333333" d="M1147.807,859.704c-1.314,0-2.402-0.227-3.354-0.661c-3.325-1.522-4.367-5.331-5.81-10.603
		c-0.233-0.854-0.479-1.756-0.751-2.704c-5.305-18.569-30.589-184.554-30.749-195.161c-0.284-18.812-1.562-23.362-1.985-24.427
		C1078.973,612.689,943,612.533,941,612.533v-3c6,0,137.752,0.156,165.236,13.8c0.15,0.024,0.389,0.068,0.529,0.134
		c1.013,0.465,2.943,1.331,3.332,27.063c0.159,10.562,25.371,175.882,30.656,194.382c0.275,0.96,0.536,1.873,0.771,2.736
		c1.273,4.653,2.121,7.728,4.171,8.666c4.656,2.133,17.62-4.049,52.266-20.567c3.362-1.604,6.935-3.307,10.728-5.11l1.289,2.709
		c-3.792,1.804-7.36,3.506-10.723,5.109C1167.732,853.484,1154.688,859.703,1147.807,859.704z"/>
	<path fill="#333333" d="M731.854,931.427c-1.461,0-3.244-0.537-5.048-2.389c-1.924-1.976-19.824-15.033-38.775-28.857
		c-30.327-22.122-51.988-37.866-54.511-40.864c-0.176-0.209-0.465-0.316-1.146-0.316c-0.023,0-0.047,0-0.071,0
		c-5.062,0-17.953,10.664-34.528,28.817l-2.216-2.097c12.491-13.68,28.978-29.979,36.764-29.979c0.037,0,0.074-0.018,0.111-0.017
		c1.392,0.027,2.561,0.548,3.38,1.521c2.484,2.952,31.039,23.778,53.983,40.515c19.884,14.505,37.056,27.028,39.156,29.185
		c1.198,1.23,2.438,1.696,3.675,1.382c1.904-0.479,3.837-2.757,4.596-5.415c1.342-4.697,103.062-248.45,107.391-258.824l2.769,1.156
		c-36.58,87.651-106.077,254.479-107.275,258.493c-0.888,3.108-3.318,6.634-6.745,7.498
		C732.918,931.349,732.409,931.427,731.854,931.427z"/>
	<path fill="#333333" d="M770.818,267.25l-1.638-2.514c1.353-0.883,34.314-21.498,138.315-10.235
		c81.969,8.875,170.453-2.846,212.978-8.48c11.901-1.576,20.5-2.715,24.733-2.861l0.104,2.998
		c-4.088,0.141-12.626,1.272-24.442,2.837c-42.643,5.649-131.372,17.403-213.694,8.488
		C804.512,246.368,771.143,267.041,770.818,267.25z"/>
</g>
<g id="testa" display="none">
	<path id="faccia" display="inline" fill="none" stroke="#000000" stroke-width="2" stroke-miterlimit="10" d="M676.415,102.41
		c27.585,34.259,51.742,47.424,48.83,49.412c-9.684,6.61-27.911,21.036-19.578,23.417s28.047,8.333,23.547,15.476
		S697.333,230,697.333,230s-15.477,13.095-2.381,30.952s21.032,17.857,34.921,0s30.556-51.786,35.317-34.523
		c0,0,11.905,69.274,14.286,79.28c3.196,13.434,2.456,18.564-10.715,18.339c-12.98-0.222-50.771,5.137-76.095,4.619
		C671.75,328.239,638,326,617.571,330.281c-9.104,1.908-20.238,5.672-35.714,10.434"/>
	<path id="visiera_1_" display="inline" fill="none" stroke="#150100" stroke-width="3" stroke-miterlimit="10" d="M508.048,347.857
		c0,0,34.523-163.095,197.619-277.381c0,0,28.915-17.01,22.214-12.474C674.402,94.198,555.429,224.379,508.048,347.857z"/>
	<path id="cappello" display="inline" fill="none" stroke="#150300" stroke-width="3" stroke-miterlimit="10" d="M687.987,83.432
		c0,0,8.155-21.289-21.606-21.289s-33.332-3.711-59.523,10.645c-26.191,14.355-58.334,41.736-75,58.403
		s-60.714,61.905-64.286,110.714s-20.238,67.857-7.143,63.095s50-40.476,64.286-54.762"/>
	<g id="piuma" display="inline">
		<path fill="none" stroke="#000000" stroke-width="4" stroke-miterlimit="10" d="M532,244.659c0,0-159.333,172.667-189.333,204
			s-150.667,140.667-182,172s-109.333,113.333-124,128"/>
		<path fill="none" stroke="#000000" stroke-width="4" stroke-miterlimit="10" d="M498,287.326c0,0-142.667,172.667-168.667,201.333
			"/>
		<path fill="none" stroke="#000000" stroke-width="4" stroke-miterlimit="10" d="M478,305.708c0,0-221.333,259.046-242.667,289.999
			"/>
		<path fill="none" stroke="#000000" stroke-width="4" stroke-miterlimit="10" d="M168.666,664.667
			c0,0,147.334-164.008,160.667-190.008"/>
		<path fill="none" stroke="#000000" stroke-width="4" stroke-miterlimit="10" d="M219.333,506.645
			c0,0,239.064-182.335,249.962-194.121S284.666,462.659,272.666,474.659"/>
		<path fill="none" stroke="#000000" stroke-width="4" stroke-miterlimit="10" d="M63.333,690.659
			c0,0,286.183-229.336,299.425-263.335"/>
		<path fill="none" stroke="#000000" stroke-width="4" stroke-miterlimit="10" d="M158.666,602.659
			c0,0,247.373-230.223,272.667-254.802"/>
		<polyline fill="none" stroke="#000000" stroke-width="4" stroke-miterlimit="10" points="188,625.992 379.045,409.862 
			235.333,565.326 		"/>
		<path fill="none" stroke="#000000" stroke-width="4" stroke-miterlimit="10" d="M164,696.659c0,0,378-447.333,372.667-455.333"/>
	</g>
	<path display="inline" fill="none" stroke="#000000" stroke-miterlimit="10" d="M110.615,61.712"/>
</g>
<g id="testa_copia">
	<path fill="#333333" d="M582.298,342.148l-0.882-2.867c3.534-1.087,6.841-2.123,9.95-3.096c10.505-3.289,18.803-5.886,25.897-7.373
		c16.805-3.521,42.207-2.687,62.617-2.018c4.596,0.15,8.937,0.293,12.817,0.373c14.778,0.301,34.16-1.438,49.738-2.836
		c11.218-1.007,20.911-1.867,26.352-1.783c5.177,0.089,8.226-0.675,9.615-2.402c1.9-2.364,1.221-7.342-0.385-14.09
		c-2.348-9.863-13.647-75.545-14.293-79.298c-0.606-2.163-1.423-3.43-2.303-3.57c-3.775-0.599-12.238,12.13-19.013,22.366
		c-3.765,5.688-7.658,11.571-11.353,16.32c-7.605,9.779-13.283,13.972-18.937,13.972c-0.055,0-0.108,0-0.162-0.001
		c-5.628-0.08-11.075-4.268-18.216-14.004c-7.174-9.783-6.081-18.246-3.9-23.624c2.168-5.348,5.761-8.689,6.422-9.273
		c1.568-1.843,27.401-32.235,31.681-39.028c0.464-0.736,0.548-1.387,0.271-2.11c-0.894-2.337-5.603-6.164-22.961-11.124
		c-2.304-0.658-2.99-2.058-3.162-3.116c-1.005-6.215,15.376-18.194,21.569-22.476c-0.996-1.176-3.803-3.522-6.747-5.985
		c-8.61-7.201-24.639-20.604-41.668-41.753l2.336-1.882c16.845,20.92,32.126,33.699,41.257,41.334
		c6.523,5.455,8.227,6.954,8.142,8.689c-0.031,0.632-0.355,1.204-0.891,1.569c-12.055,8.228-21.491,17.211-21.036,20.025
		c0.018,0.108,0.07,0.438,1.024,0.71c9.635,2.753,22.703,7.089,24.938,12.937c0.612,1.601,0.428,3.254-0.534,4.781
		c-4.506,7.151-30.888,38.143-32.009,39.458l-0.173,0.172c-0.584,0.499-14.228,12.438-2.14,28.92
		c6.434,8.774,11.318,12.715,15.838,12.779c4.562,0.06,9.747-3.887,16.689-12.813c3.623-4.659,7.484-10.493,11.218-16.134
		c10.087-15.239,16.547-24.533,21.986-23.672c2.211,0.352,3.763,2.25,4.743,5.805l0.032,0.145
		c0.119,0.692,11.924,69.341,14.267,79.187c1.909,8.024,2.489,13.324-0.195,16.664c-2.044,2.543-5.732,3.625-12.004,3.523
		c-5.304-0.095-14.901,0.772-26.032,1.771c-15.652,1.405-35.128,3.155-50.067,2.847c-3.9-0.08-8.25-0.222-12.855-0.374
		c-20.25-0.664-45.451-1.491-61.903,1.957c-6.953,1.457-15.189,4.035-25.617,7.299C589.149,340.022,585.837,341.059,582.298,342.148
		z"/>
	<g>
		<path id="cappello_2_" fill="#F0D30E" d="M687.987,83.432c0,0,8.155-21.289-21.606-21.289s-33.332-3.711-59.523,10.645
			c-26.191,14.355-58.334,41.736-75,58.403s-60.714,61.905-64.286,110.714s-20.238,67.857-7.143,63.095s50-40.476,64.286-54.762"/>
		<path fill="#333333" d="M457.403,308.204c-1.08,0-2.171-0.272-3.051-1.095c-2.472-2.313-1.313-6.305,1.225-15.05
			c2.91-10.026,7.779-26.806,9.501-50.336c1.564-21.374,10.874-44.473,27.672-68.654c12.716-18.305,26.634-32.94,37.339-43.645
			c15.485-15.486,48.389-43.931,75.566-58.828c21.739-11.915,28.882-11.708,46.161-11.208c4.155,0.12,8.865,0.256,14.564,0.256
			c11.031,0,18.574,2.833,22.418,8.422c4.923,7.157,1.664,15.893,1.523,16.261l-4.673-1.781c0.025-0.066,2.453-6.708-0.99-11.676
			c-2.864-4.132-9.014-6.227-18.278-6.227c-5.771,0-10.52-0.137-14.709-0.259c-17.256-0.499-23.064-0.667-43.613,10.596
			c-26.718,14.644-59.152,42.696-74.435,57.978c-10.558,10.558-24.278,24.983-36.768,42.962
			c-16.28,23.436-25.294,45.698-26.792,66.167c-1.76,24.053-6.721,41.149-9.685,51.364c-1.131,3.896-2.295,7.907-2.402,9.678
			c0.353-0.074,0.868-0.214,1.597-0.479c10.664-3.877,40.803-31.61,63.373-54.18l3.535,3.535
			c-11.661,11.662-50.826,50.117-65.199,55.344C460.44,307.656,458.934,308.204,457.403,308.204z"/>
	</g>
	<g>
		<path id="visiera_3_" fill="#F0D30E" d="M508.048,347.857c0,0,34.523-163.095,197.619-277.381c0,0,28.915-17.01,22.214-12.474
			C674.402,94.198,555.429,224.379,508.048,347.857z"/>
		<path fill="#333333" d="M510.382,348.752l-4.78-1.413c0.087-0.411,9.037-41.748,37.883-96.481
			c26.604-50.479,76.088-123.106,160.748-182.429l0.167,0.026C727.496,54.866,728.015,55,728.872,55h1.849l0.558,1.641
			c0.562,1.834-0.856,2.727-1.996,3.499c-28.849,19.526-72.678,63.335-111.659,111.662
			C583.402,214.228,537.017,279.339,510.382,348.752z M695.128,81.175c-76.575,57.034-122.153,124.451-147.22,172.014
			c-10.138,19.237-17.785,36.77-23.434,51.401c26.751-53.599,61.877-102.016,89.258-135.961
			C640.67,135.232,669.957,103.927,695.128,81.175z"/>
	</g>
	<g id="piuma_copia">
		<path fill="#333333" d="M539.162,239.662l-4.992,3.328c-0.534-0.801-0.473-1.596-0.405-1.835
			c-0.189,0.657-0.815,1.819-1.837,3.438l-2.133-1.969c-0.656,0.711-27.832,30.159-61.647,66.72
			c-0.819,0.398-1.655,1.006-2.51,1.632c-1.42,1.04-3.491,2.625-6.154,4.709c-5.012,3.923-12.209,9.686-21.393,17.126
			c-10.978,8.894-24.66,20.08-39.854,32.578c-55.317,42.968-131.489,101.318-180.723,138.869l3.639,4.771
			c3.038-2.317,27.332-20.851,59.695-45.644c-5.321,4.585-8.939,7.788-10.302,9.152l4.242,4.242
			c7.477-7.477,73.226-62.363,126.609-106.251c3.175-2.466,6.285-4.885,9.332-7.257c-63.428,59.722-251.939,235.174-254.106,237.191
			l4.088,4.393c2.11-1.964,180.81-168.284,248.855-232.252c-30.834,33.241-58.348,62.787-69.066,73.981
			c-14.286,14.92-48.781,47.199-85.165,81.033c-63.226,54.65-141.371,118.625-193.877,160.701L65.209,693
			c4.603-3.688,49.923-40.049,104.051-84.911c-4.221,4.051-7.845,7.579-10.715,10.449c-18.629,18.628-53.878,55.295-82.201,84.758
			c-19.244,20.018-35.864,37.306-41.8,43.242l4.243,4.242c5.977-5.978,22.616-23.285,41.882-43.326
			c28.305-29.443,63.531-66.087,82.118-84.674c13.899-13.899,45.487-43.246,78.928-74.315c6.162-5.725,12.352-11.476,18.487-17.182
			c4.332-3.748,8.609-7.467,12.816-11.144l-39.889,43.15l3.462,3.2l-50.84,57.515l4.495,3.975l135.91-153.755
			c-15.836,28.144-158.27,186.819-159.723,188.438l4.464,4.01c2.63-2.928,31.101-34.646,63.467-71.632l3.438,2.369
			c8.172-11.857,46.368-57.971,90.112-110.036l3.64,3.302c8.421-9.285,29.233-33.86,53.479-62.789
			c-70.949,85.75-155.028,186.012-223.326,266.837l4.583,3.873c0.945-1.118,95.581-113.133,188.348-224.686
			c54.49-65.523,97.685-118.071,128.384-156.182C542.216,244.243,541.001,242.42,539.162,239.662z M430.955,347.467
			c2.424-1.902,4.766-3.743,7.024-5.523c-2.014,2.175-4.031,4.353-6.047,6.529L430.955,347.467z M338.571,460.18
			c12.649-12.506,21.672-22.515,25.474-28.819l17.248-19.512l0,0c8.753-9.402,18.425-19.812,28.526-30.698
			c-24.464,28.809-52.752,62.211-79.504,94.012l-3.432-1.761L338.571,460.18z M497.249,286.706
			c7.062-7.641,13.421-14.525,18.796-20.345c-4.828,6.28-10.544,13.582-17.05,21.788L497.249,286.706z"/>
	</g>
</g>
<g id="Livello_6" display="none">
	<path display="inline" fill="none" stroke="#000000" stroke-width="0.5" stroke-linecap="round" stroke-linejoin="round" d="
		M908.67,374.67c0,0,24.66-41.91,58-33.96c33.33,7.96,18,10.33,8.66,16.48c-9.33,6.14-69.33,50.14-82.66,66.14
		c-13.34,16-44.67,60-41.34,88c3.34,28,15.34,62,55.34,76.67c39.32,14.42,121.69-11.25,158-104c23.15-59.13,20-66,22-79.33
		c2-13.34,10.66-82.67,16.66-95.34c6-12.66,32.67-72.66,70-81.33c37.34-8.67,70.67,11.33,74.67,24s-17.33,15.33-17.33,15.33
		s-2-1.33-16-8c-14-6.66-48-22-69.34,1.34c-21.33,23.33-25.74,41.38-30,69.33c-8.91,58.6-7.05,101.86-8.66,118
		c-2.67,26.67-28.13,114.24-90,142.11c-50,22.529-107.82,30.87-136.67,7.89c-16.7-13.3-33.36-33.22-35.36-39.22
		s-19.31-46.11,4.69-92.78S904.63,380.64,908.67,374.67z"/>
	<path display="inline" fill="none" stroke="#000000" stroke-width="0.5" stroke-linecap="round" stroke-linejoin="round" d="
		M851.09,506.64l96.24,78.03c0,0-2,4.66-2.66,10.66c-0.67,6-89.84-62-91.59-73S851.09,506.64,851.09,506.64z"/>
	<path display="inline" fill="none" stroke="#000000" stroke-width="0.5" stroke-linecap="round" stroke-linejoin="round" d="
		M868,533.33c0,0,105.33-138.66,126-164"/>
	<path display="inline" fill="none" stroke="#000000" stroke-width="0.5" stroke-linecap="round" stroke-linejoin="round" d="
		M880,541.33c0,0,116.67-152.66,128-162"/>
	
		<line display="inline" fill="none" stroke="#000000" stroke-width="0.5" stroke-linecap="round" stroke-linejoin="round" x1="899.21" y1="551.18" x2="1026" y2="391.33"/>
	<path display="inline" fill="none" stroke="#000000" stroke-width="0.5" stroke-linecap="round" stroke-linejoin="round" d="
		M914.67,564c0,0,119.32-151.14,124-159.33"/>
	<path display="inline" fill="none" stroke="#000000" stroke-width="0.5" stroke-linecap="round" stroke-linejoin="round" d="
		M931,577.33c0,0,125-153,127.67-156.83"/>
</g>
</svg>
